<?xml version="1.0" encoding="utf-8"?>
<!-- Generator: Adobe Illustrator 25.4.1, SVG Export Plug-In . SVG Version: 6.00 Build 0)  -->
<svg version="1.1" id="Layer_1" xmlns="http://www.w3.org/2000/svg" xmlns:xlink="http://www.w3.org/1999/xlink" x="0px" y="0px"
	 viewBox="0 0 240 240.21" style="enable-background:new 0 0 240 240.21;" xml:space="preserve">
<g>
	<path d="M121.71,15.26L118.36,0l2.97,0.2l2.1,10.48l3.51-10.07l2.97,0.18l2.1,10.48l3.51-10.09l2.97,0.2l-5.42,14.66l-2.78-0.19
		l-2.2-10.3l-3.59,9.9L121.71,15.26z"/>
	<path d="M138.9,16.87l8.06-13.45l4.1,1.02l0.84,15.66l-2.83-0.7l-0.78-13.82l0.52,0.13l-7.08,11.87L138.9,16.87z M142.32,14.5
		l0.64-2.57l7.68,1.91L150,16.4L142.32,14.5z"/>
	<path d="M157.99,22.46L162.61,11l-4.38-1.77l0.99-2.45l11.39,4.6l-0.99,2.45l-4.38-1.77l-4.62,11.45L157.99,22.46z"/>
	<path d="M173.98,30.67c-1.29-0.77-2.22-1.72-2.82-2.84c-0.6-1.12-0.84-2.33-0.74-3.64c0.1-1.31,0.55-2.63,1.35-3.96
		c0.8-1.33,1.76-2.35,2.86-3.05c1.11-0.7,2.29-1.05,3.56-1.05s2.54,0.39,3.83,1.16c1.48,0.89,2.49,2,3.06,3.33
		c0.56,1.33,0.67,2.75,0.33,4.25l-2.85-0.79c0.23-0.92,0.19-1.77-0.11-2.54c-0.31-0.77-0.9-1.43-1.8-1.96
		c-0.82-0.49-1.6-0.72-2.37-0.68c-0.76,0.04-1.48,0.3-2.15,0.8c-0.67,0.5-1.27,1.19-1.81,2.08s-0.87,1.75-0.99,2.58
		c-0.12,0.83-0.02,1.58,0.3,2.27c0.33,0.69,0.9,1.28,1.71,1.77c0.89,0.54,1.75,0.76,2.58,0.66c0.83-0.09,1.59-0.46,2.29-1.09
		l2.04,2.15c-1.16,1-2.46,1.57-3.91,1.7C176.92,31.93,175.46,31.55,173.98,30.67z"/>
	<path d="M183.69,36.67l9.77-11.37l2.15,1.85l-4.02,4.68l5.09,4.37l4.02-4.68l2.15,1.85l-9.77,11.37l-2.15-1.85l4.03-4.69
		l-5.09-4.37l-4.03,4.69L183.69,36.67z"/>
	<path d="M203.34,56.51l9.9-7.38l-2.83-3.79l2.12-1.58l7.35,9.85l-2.12,1.58l-2.83-3.79l-9.9,7.38L203.34,56.51z"/>
	<path d="M209.99,66.01l13.22-7.07l2.99,5.58c0.07,0.13,0.16,0.3,0.26,0.53c0.11,0.22,0.19,0.43,0.25,0.62
		c0.3,0.86,0.39,1.64,0.26,2.36c-0.13,0.72-0.43,1.36-0.91,1.92c-0.47,0.56-1.08,1.04-1.82,1.44c-1.11,0.59-2.2,0.82-3.28,0.69
		c-1.08-0.13-2.03-0.73-2.84-1.81l-0.66-1.06l-1.65-3.09l-4.48,2.4L209.99,66.01z M213.98,73.47l3.99-5.49l1.87,2.31l-4.34,6.01
		L213.98,73.47z M218.14,64.87l1.59,2.98c0.07,0.13,0.15,0.27,0.24,0.41c0.09,0.15,0.19,0.27,0.3,0.38
		c0.27,0.29,0.57,0.46,0.88,0.53c0.31,0.07,0.62,0.07,0.93-0.01c0.3-0.07,0.58-0.17,0.81-0.3c0.24-0.13,0.47-0.3,0.7-0.51
		c0.23-0.21,0.4-0.47,0.52-0.77c0.12-0.3,0.13-0.64,0.05-1.03c-0.03-0.15-0.08-0.3-0.15-0.46c-0.07-0.16-0.14-0.3-0.21-0.43
		l-1.59-2.98L218.14,64.87z"/>
	<path d="M216.99,79.61l15.67-0.58l1.38,4l-12.67,9.24l-0.95-2.76l11.16-8.18l0.18,0.51l-13.81,0.53L216.99,79.61z M220.84,81.18
		l2.5-0.87l2.59,7.48l-2.5,0.87L220.84,81.18z"/>
	<path d="M222.28,96.73l14.66-3.15l0.59,2.77l-14.66,3.15L222.28,96.73z"/>
	<path d="M223.94,105.29l14.91-1.56l0.29,2.82l-12.28,1.28l0.67,6.42l-2.63,0.27L223.94,105.29z"/>
	<path d="M225.01,118.73l14.99,0.44l-0.29,9.78l-2.64-0.08l0.21-6.95l-3.21-0.09l-0.17,5.7l-2.64-0.08l0.17-5.7l-3.85-0.11
		l-0.21,6.95l-2.64-0.08L225.01,118.73z"/>
	<path d="M222.76,141.73l6.53-1.84l0.04,2.97l-7.13,2.02L222.76,141.73z M224.25,133.41l14.76,2.64l-1.12,6.23
		c-0.03,0.14-0.06,0.34-0.12,0.58c-0.05,0.24-0.11,0.45-0.18,0.64c-0.29,0.86-0.71,1.53-1.26,2.01c-0.55,0.48-1.18,0.8-1.9,0.95
		c-0.72,0.15-1.49,0.14-2.32,0c-1.24-0.22-2.24-0.72-3.01-1.49c-0.77-0.77-1.14-1.83-1.11-3.18l0.14-1.25l0.62-3.44l-5-0.9
		L224.25,133.41z M231.35,137.56l-0.59,3.32c-0.03,0.14-0.05,0.3-0.06,0.47c-0.02,0.17-0.02,0.34,0,0.49
		c0.03,0.39,0.16,0.72,0.36,0.96c0.21,0.25,0.45,0.44,0.73,0.57c0.28,0.13,0.56,0.22,0.82,0.27c0.27,0.05,0.56,0.06,0.87,0.03
		c0.31-0.03,0.61-0.12,0.89-0.28c0.28-0.16,0.5-0.42,0.67-0.78c0.07-0.14,0.12-0.29,0.17-0.46s0.08-0.32,0.11-0.47l0.59-3.32
		L231.35,137.56z"/>
	<path d="M224.77,158.11l2.03,0.8l-2.29,5.81l-2.03-0.8L224.77,158.11z"/>
	<path d="M209.69,174.99l14.84,4.89l-1.69,2.45l-10.08-3.54l6.87,8.15l-1.67,2.46l-10.08-3.54l6.89,8.17l-1.69,2.45l-9.85-12.13
		l1.58-2.3l9.98,3.35l-6.68-8.14L209.69,174.99z"/>
	<path d="M199.54,188.96l7.48,13.78l-2.96,3.02l-13.91-7.24l2.04-2.08l12.29,6.36l-0.38,0.39l-6.61-12.14L199.54,188.96z
		 M199.84,193.11l1.89,1.85l-5.55,5.64l-1.89-1.85L199.84,193.11z"/>
	<path d="M185.03,202.56l7.53,9.79l3.75-2.88l1.61,2.1l-9.74,7.49l-1.61-2.1l3.75-2.88l-7.53-9.79L185.03,202.56z"/>
	<path d="M169.86,212.18c1.32-0.72,2.61-1.05,3.88-0.99c1.27,0.05,2.44,0.46,3.51,1.21c1.08,0.75,1.99,1.81,2.73,3.17
		c0.74,1.37,1.14,2.7,1.18,4.02c0.05,1.31-0.25,2.51-0.9,3.6c-0.64,1.09-1.62,2-2.94,2.71c-1.51,0.82-2.99,1.14-4.42,0.95
		c-1.44-0.19-2.71-0.81-3.83-1.86l2.13-2.06c0.68,0.67,1.43,1.06,2.25,1.19c0.82,0.13,1.69-0.06,2.6-0.56
		c0.84-0.46,1.43-1.02,1.79-1.7c0.36-0.68,0.49-1.43,0.4-2.26c-0.09-0.83-0.38-1.7-0.88-2.62c-0.5-0.91-1.07-1.63-1.72-2.16
		c-0.65-0.52-1.35-0.82-2.11-0.89c-0.76-0.07-1.56,0.12-2.39,0.58c-0.91,0.5-1.54,1.13-1.88,1.89s-0.41,1.6-0.22,2.53l-2.88,0.67
		c-0.28-1.51-0.1-2.92,0.51-4.23C167.28,214.07,168.35,213,169.86,212.18z"/>
	<path d="M159.75,217.52l4.83,14.2l-2.68,0.91l-1.99-5.84l-6.35,2.16l1.99,5.84l-2.68,0.91l-4.83-14.19l2.68-0.91l1.99,5.86
		l6.35-2.16l-1.99-5.86L159.75,217.52z"/>
	<path d="M132.7,224.34l1.31,12.28l4.7-0.5l0.28,2.63l-12.22,1.3l-0.28-2.63l4.7-0.5l-1.31-12.28L132.7,224.34z"/>
	<path d="M121.12,225.22l-0.63,14.98l-6.33-0.27c-0.15-0.01-0.34-0.02-0.59-0.04c-0.25-0.02-0.46-0.05-0.66-0.09
		c-0.89-0.18-1.61-0.5-2.16-0.98c-0.55-0.47-0.95-1.06-1.19-1.75c-0.24-0.69-0.35-1.46-0.31-2.3c0.05-1.26,0.41-2.32,1.07-3.18
		c0.66-0.86,1.66-1.37,3-1.53l1.25-0.03l3.5,0.15l0.21-5.08L121.12,225.22z M112.67,224.87l2.7,6.22l-2.94,0.44l-2.97-6.8
		L112.67,224.87z M117.97,232.82l-3.37-0.14c-0.15-0.01-0.31-0.01-0.48,0c-0.17,0.01-0.34,0.03-0.48,0.06
		c-0.39,0.09-0.69,0.25-0.91,0.49c-0.22,0.24-0.37,0.51-0.47,0.8c-0.09,0.3-0.14,0.58-0.16,0.85c-0.01,0.27,0.02,0.56,0.08,0.86
		c0.07,0.31,0.2,0.58,0.4,0.84c0.2,0.25,0.49,0.44,0.86,0.56c0.14,0.05,0.3,0.08,0.47,0.1c0.17,0.02,0.33,0.03,0.48,0.04l3.37,0.14
		L117.97,232.82z"/>
	<path d="M105.85,224.35l-7.45,13.8l-4.15-0.83l-1.53-15.6l2.86,0.58l1.39,13.77l-0.53-0.11l6.55-12.17L105.85,224.35z
		 M102.54,226.87l-0.52,2.59l-7.76-1.56l0.52-2.59L102.54,226.87z"/>
	<path d="M88.39,220.22l-4.72,14.23l-2.69-0.89l4.72-14.23L88.39,220.22z"/>
	<path d="M80.18,217.31l-6.23,13.64l-2.58-1.18l5.13-11.23l-5.87-2.68l1.1-2.41L80.18,217.31z"/>
	<path d="M68.06,211.41l-8.02,12.67l-8.27-5.23l1.41-2.24l5.88,3.72l1.71-2.71l-4.82-3.05l1.41-2.24l4.82,3.05l2.06-3.26l-5.88-3.72
		l1.41-2.24L68.06,211.41z"/>
	<path d="M55.82,203.28l-9.79,11.36l-4.8-4.13c-0.11-0.09-0.26-0.23-0.43-0.4c-0.18-0.17-0.33-0.33-0.46-0.48
		c-0.59-0.69-0.95-1.39-1.09-2.11c-0.14-0.72-0.09-1.42,0.15-2.12c0.24-0.69,0.64-1.36,1.18-2c0.82-0.95,1.76-1.56,2.81-1.83
		c1.06-0.27,2.16-0.05,3.3,0.67l1,0.75l2.65,2.29l3.32-3.85L55.82,203.28z M48.63,207.28l-2.55-2.2c-0.11-0.09-0.24-0.19-0.38-0.3
		c-0.14-0.1-0.28-0.19-0.42-0.25c-0.36-0.17-0.7-0.23-1.01-0.18c-0.32,0.05-0.61,0.16-0.86,0.34c-0.26,0.18-0.47,0.37-0.65,0.57
		c-0.18,0.2-0.33,0.45-0.47,0.73s-0.21,0.58-0.21,0.91c0,0.32,0.11,0.65,0.33,0.98c0.08,0.13,0.19,0.25,0.31,0.38
		c0.12,0.12,0.24,0.23,0.35,0.33l2.56,2.2L48.63,207.28z M49.42,197.76l-1.75,6.55l-2.58-1.48l1.89-7.17L49.42,197.76z"/>
	<path d="M34.3,191.17l-1.72,1.35l-3.85-4.92l1.72-1.35L34.3,191.17z"/>
	<path d="M27.38,169.6l-11.74,10.31l-1.26-2.7l8.16-6.9l-10.51,1.79l-1.28-2.69l8.16-6.9l-10.53,1.8l-1.26-2.7l15.45-2.34l1.18,2.53
		l-7.95,6.91l10.4-1.64L27.38,169.6z"/>
	<path d="M20.49,153.8l-15.67-0.56l-1.09-4.08l13.31-8.29l0.75,2.82l-11.73,7.35l-0.14-0.52l13.81,0.48L20.49,153.8z M16.77,151.95
		l-2.56,0.68l-2.04-7.65l2.56-0.68L16.77,151.95z"/>
	<path d="M16.17,134.39l-12.26,1.48l0.57,4.69l-2.63,0.32l-1.48-12.2L3,128.37l0.57,4.69l12.26-1.49L16.17,134.39z"/>
	<path d="M15.62,116.41c-0.05,1.5-0.42,2.78-1.11,3.84c-0.69,1.06-1.63,1.87-2.83,2.41c-1.19,0.55-2.57,0.79-4.12,0.74
		c-1.55-0.05-2.91-0.4-4.06-1.02c-1.15-0.63-2.03-1.5-2.65-2.6c-0.62-1.11-0.9-2.41-0.84-3.91c0.06-1.72,0.54-3.15,1.43-4.29
		c0.89-1.14,2.08-1.92,3.55-2.35l0.69,2.88c-0.92,0.25-1.64,0.69-2.17,1.33c-0.53,0.64-0.81,1.48-0.84,2.52
		c-0.03,0.95,0.15,1.75,0.55,2.4c0.4,0.65,0.98,1.15,1.74,1.49c0.76,0.35,1.66,0.54,2.7,0.57c1.04,0.04,1.95-0.09,2.73-0.38
		c0.78-0.29,1.39-0.75,1.84-1.37c0.45-0.62,0.68-1.41,0.72-2.36c0.04-1.04-0.19-1.9-0.67-2.58c-0.48-0.68-1.17-1.17-2.06-1.48
		l0.89-2.82c1.44,0.53,2.57,1.39,3.38,2.59C15.3,113.23,15.68,114.69,15.62,116.41z"/>
	<path d="M16.15,105.01l-14.69-3.03l0.57-2.77l6.04,1.25l1.35-6.57l-6.04-1.25l0.57-2.77l14.69,3.03l-0.57,2.77l-6.06-1.25
		l-1.35,6.57l6.06,1.25L16.15,105.01z"/>
	<path d="M23.99,78.22l-11.25-5.11l-1.95,4.31l-2.41-1.09l5.08-11.19l2.41,1.09l-1.95,4.31l11.24,5.11L23.99,78.22z"/>
	<path d="M29.11,67.8l-12.57-8.17l3.45-5.31c0.08-0.12,0.19-0.28,0.33-0.48c0.14-0.2,0.28-0.37,0.42-0.52
		c0.6-0.68,1.25-1.13,1.94-1.36c0.69-0.23,1.4-0.28,2.12-0.13c0.72,0.15,1.43,0.45,2.14,0.91c1.05,0.69,1.78,1.53,2.19,2.54
		c0.41,1.01,0.34,2.13-0.22,3.36l-0.61,1.09l-1.91,2.93l4.26,2.77L29.11,67.8z M24.17,61.21l1.84-2.83
		c0.08-0.12,0.16-0.26,0.24-0.41c0.08-0.15,0.15-0.3,0.19-0.45c0.12-0.38,0.13-0.72,0.04-1.03c-0.09-0.31-0.25-0.58-0.45-0.81
		c-0.21-0.23-0.43-0.42-0.65-0.57c-0.23-0.15-0.49-0.27-0.79-0.37c-0.3-0.1-0.61-0.13-0.93-0.09c-0.32,0.04-0.63,0.19-0.92,0.46
		c-0.11,0.1-0.22,0.22-0.33,0.36c-0.11,0.14-0.2,0.27-0.28,0.39l-1.84,2.83L24.17,61.21z M33.72,60.71l-6.73-0.85l1.12-2.75
		l7.36,0.91L33.72,60.71z"/>
	<path d="M37.65,55.11l-8.08-13.44l2.83-3.14l14.21,6.63l-1.95,2.17L32.1,41.51l0.36-0.4l7.14,11.84L37.65,55.11z M37.17,50.97
		L35.2,49.2l5.29-5.88l1.97,1.77L37.17,50.97z"/>
	<path d="M50.07,42.18l-9.87-11.29l2.13-1.86l9.86,11.29L50.07,42.18z"/>
	<path d="M56.75,36.59l-8.6-12.28l2.32-1.62l7.09,10.12l5.29-3.7l1.52,2.17L56.75,36.59z"/>
	<path d="M67.99,29.12l-6.86-13.33l8.7-4.48l1.21,2.35l-6.18,3.18l1.47,2.85l5.07-2.61l1.21,2.35l-5.07,2.61l1.76,3.43l6.18-3.18
		l1.21,2.35L67.99,29.12z"/>
	<path d="M81.19,22.7l-4.81-14.2l6-2.03c0.14-0.05,0.33-0.1,0.56-0.17c0.24-0.07,0.45-0.12,0.65-0.15c0.89-0.16,1.68-0.11,2.37,0.13
		c0.69,0.24,1.27,0.65,1.75,1.21c0.48,0.56,0.85,1.24,1.12,2.03c0.4,1.19,0.45,2.31,0.15,3.35c-0.31,1.05-1.06,1.88-2.25,2.51
		l-1.16,0.48l-3.31,1.12l1.63,4.81L81.19,22.7z M81.39,14.47l3.2-1.08c0.14-0.05,0.29-0.1,0.45-0.17s0.3-0.15,0.43-0.23
		c0.33-0.22,0.55-0.48,0.67-0.78c0.12-0.3,0.17-0.61,0.15-0.92c-0.02-0.31-0.07-0.6-0.16-0.85c-0.09-0.26-0.22-0.51-0.39-0.78
		c-0.17-0.26-0.4-0.47-0.67-0.64c-0.28-0.17-0.61-0.24-1.01-0.21c-0.15,0.01-0.31,0.03-0.48,0.07c-0.17,0.04-0.32,0.09-0.46,0.13
		l-3.2,1.08L81.39,14.47z M89.2,19.98l-4.76-4.83l2.58-1.47l5.22,5.27L89.2,19.98z"/>
	<path d="M100.87,10.6l-0.31-2.16l6.18-0.9l0.31,2.16L100.87,10.6z"/>
</g>
</svg>
